PathFileType	4	(X/Y/Z)	65_1_4_p0_0-270.trc
DataRate	CameraRate	NumFrames	NumMarkers	Units	OrigDataRate	OrigDataStartFrame	OrigNumFrames
60.0	60.0	6	27	m	60.0	169	271
Frame#	Time	RHip			RKnee			RAnkle			RBigToe			RSmallToe			RHeel			LHip			LKnee			LAnkle			LBigToe			LSmallToe			LHeel			Neck			Head			Nose			RShoulder			RElbow			RWrist			RThumb			RIndex			RPinky			LShoulder			LElbow			LWrist			LThumb			LIndex			LPinky			
		X1	Y1	Z1	X2	Y2	Z2	X3	Y3	Z3	X4	Y4	Z4	X5	Y5	Z5	X6	Y6	Z6	X7	Y7	Z7	X8	Y8	Z8	X9	Y9	Z9	X10	Y10	Z10	X11	Y11	Z11	X12	Y12	Z12	X13	Y13	Z13	X14	Y14	Z14	X15	Y15	Z15	X16	Y16	Z16	X17	Y17	Z17	X18	Y18	Z18	X19	Y19	Z19	X20	Y20	Z20	X21	Y21	Z21	X22	Y22	Z22	X23	Y23	Z23	X24	Y24	Z24	X25	Y25	Z25	X26	Y26	Z26	X27	Y27	Z27	
169	2.816666666666667	0.41265162698473745	0.778360004109635	0.3370204251649912	0.3509367092871238	0.8648930774481353	0.7239675238031192	0.29363249851829504	1.0290762043712245	1.1449298125676282	0.28346232406780664	0.8619434415566062	1.2065393784464045	0.34239391015144016	0.8635684389427893	1.1923160888270836	0.2794645628885133	1.1475705128809561	1.2093272915142725	0.18826800758084877	0.7677325922806865	0.3155123738898357	0.14254646311624808	0.8660520084450006	0.705822070415612	0.12175656690975127	1.0409105369661613	1.1395163159963562	0.13159400367589622	0.8286520775480237	1.172075830987151	0.07871351027082509	0.8911256342998775	1.1688844336576494	0.13300231670271837	1.0958880391634267	1.180894723599391	0.33865037252292046	0.45021132494271054	-0.1418680800020073	0.3756346022478103	0.30257372922952613	-0.35083827509549625	0.34502888402103454	0.2903750560763691	-0.19690065959403083	0.4816181501501711	0.5168201143036497	-0.076607918508767	0.42646267904185176	0.5320426143559336	0.13418416158010504	0.3572395839932195	0.3225681385552254	0.19856151960973628	0.3448729139223731	0.20771288427798917	0.1991400801987566	0.3453953243895112	0.1776433116160765	0.22205801576578932	0.3376702415578381	0.19794817097372885	0.25040735897533306	0.18728538361532804	0.5008616929296308	-0.1267460537611559	0.12120203341220787	0.5008970225096657	0.09904756357658512	0.2590570159692044	0.2855492814156312	0.1805824858029936	0.35822714206770345	0.21944502907591346	0.19220280631572187	0.3616894681718201	0.22225471406556455	0.21367943789160157	0.32584851814431925	0.22876189500402558	0.2624876583787115
170	2.8333333333333335	0.40876992892153596	0.7799297521256207	0.3412902529148107	0.3510713453540099	0.8658004242053451	0.7201998676310468	0.2972694785282423	1.0456034767364786	1.1495487073018062	0.28322575205323647	0.8610680702085013	1.2061038181532802	0.34203167414378827	0.8628009381203364	1.1921386207794011	0.284037268914051	1.1271415981998796	1.2037315903847465	0.1882537541255723	0.7649773141549182	0.30690967731557484	0.142777128974756	0.869260323706154	0.7107230715157642	0.12177483592105655	1.0408719362231706	1.139547542379488	0.1317382366750207	0.8292812870598717	1.1722416598826002	0.08128463040353431	0.9069152392343163	1.1734968693089445	0.13304398341891147	1.0961513749797847	1.1808171812888693	0.33865856162783664	0.4502347959914827	-0.14182325715415392	0.3757183458780661	0.3027045120477241	-0.3508756295234537	0.34897308772451224	0.29135479955267696	-0.19688512372337078	0.48162224079768046	0.5151024688628407	-0.07998749940633212	0.42172444346926946	0.5181053602485034	0.13446159811933592	0.36500565002957075	0.33411135211498166	0.19886418600165337	0.3517358675709951	0.2057637397233582	0.1996976806375642	0.3490100550176234	0.17295893896104997	0.22163648813088863	0.3393294656302028	0.1947803728219735	0.2509321863231342	0.18735381305228505	0.5007685175841872	-0.12666004426722122	0.12595316600699102	0.48924813580111814	0.10294050422984073	0.2712092326836072	0.2860954991484488	0.18156273731057737	0.36588498743766007	0.229141927649013	0.18988772315377328	0.37295933970292316	0.22293729355266526	0.21511325882777124	0.33718453274731236	0.23333726359873946	0.2666062753056436
171	2.85	0.4086338255070753	0.7798882690814183	0.34135999119665283	0.3509890488999166	0.8658342930788421	0.7202020105128705	0.2941145667124677	1.0324683005172537	1.1500459651068922	0.28366525663484676	0.8626166568049328	1.206857779714166	0.3374330446403805	0.8837546010044419	1.2020435674772563	0.27951259190058864	1.1468617803047996	1.2091836426561406	0.1855620779968027	0.7633532113226784	0.3024209648086856	0.14286914999651346	0.8700045649274443	0.7064890284080796	0.12171198073642644	1.0409884969237355	1.1398069931406039	0.13170108213919463	0.8296076091571919	1.1723372475704334	0.08130370485542782	0.9077229496469257	1.1737038951256293	0.1331139450195656	1.0961394393649042	1.1810300900509365	0.33873979360126605	0.4501734085361288	-0.14176716756644106	0.3753993987673771	0.3037356573331941	-0.34826245948381096	0.3485234854730891	0.29214047602917953	-0.19388137797617847	0.48169660691352817	0.5152853586341	-0.08016595926964566	0.4251853151977228	0.5044132478303407	0.13782100672289815	0.36270711174076825	0.37544601028213526	0.19507878227371248	0.3414420098025724	0.26523340551072294	0.18501511586733532	0.33536115996778393	0.22537706020005374	0.2220722986687802	0.30484573778787855	0.31785880598367555	0.25132764996999535	0.18732735098409503	0.5002440713680663	-0.12305988524364517	0.13953383950055906	0.4648242797291884	0.10502745557670477	0.27551610693822826	0.2879157406246325	0.18486094891135266	0.37683953657955027	0.23083829976926495	0.18965378082718717	0.3831569409652484	0.22958824377230685	0.20848418825601403	0.3533511622449977	0.23774044130727406	0.26811928183864114
172	2.8666666666666667	0.40464820726396683	0.7955613197037701	0.337419664478463	0.35110388970972056	0.8663919059417065	0.7163184322972339	0.29724241107594374	1.0461205002283143	1.1495925217224165	0.2869768977959377	0.8767161292086401	1.2114017072763743	0.33844624478132396	0.8856422476543918	1.202413063135671	0.27968983577454803	1.1462320757962214	1.2092308446760023	0.18488527641794172	0.7679960296995014	0.30448244514066164	0.14284300133445202	0.8698533731944103	0.7062438656923751	0.12172578259977501	1.0412938502246665	1.1393061086474754	0.13174124558972777	0.8294158046586197	1.1723662111553395	0.08126347312194228	0.907526891440369	1.1736548761190915	0.13307409891049732	1.0956151739891924	1.1812554996359044	0.33877859002327126	0.4502699442725155	-0.14177612723084768	0.37545326408953816	0.30374365801626557	-0.34827525131168285	0.3516975664724419	0.30263371954948665	-0.19523769294360124	0.48179077538301673	0.5155185464317233	-0.08032451546106031	0.4366049159792262	0.5284539691290537	0.12817327191863612	0.37712826990439585	0.3431674071117845	0.2018278991776489	0.3750540542023292	0.20388392941697817	0.20232914605459196	0.3217122649179444	0.2777951814390575	0.2225081092066718	0.30434689944933885	0.3227583360485517	0.25809030573284836	0.18729867211672727	0.5001914089945284	-0.12291465452444629	0.14450957407873538	0.4517446018885645	0.10610864324542038	0.2870353426025566	0.28962363328675006	0.1856886246479707	0.38409237569191074	0.2491183710944916	0.18576900544832328	0.3989175063731198	0.23342707636423765	0.20947928046305106	0.3721736566494514	0.2473846300216622	0.26593846002062554
173	2.8833333333333333	0.4084315868129318	0.7964466507681084	0.33780969975997915	0.34712887328773634	0.8514066812623758	0.7138551907378156	0.29723392824948036	1.0460235141639123	1.1495521153228168	0.28719785743126935	0.8787940514011808	1.2123662808875784	0.34049147783512296	0.8891669268499578	1.1990531708737737	0.27985423253755787	1.1479423381277953	1.21006380665835	0.1848460260181975	0.7681835407661457	0.3044349431185767	0.14285376828183036	0.8700287957188885	0.7064900926345419	0.12168516256712511	1.0410332278334653	1.1397398612495881	0.13176288862164692	0.8300487031404165	1.1724264035175564	0.08134506711813692	0.9086519837451293	1.1738341076546568	0.1329990191202909	1.0960569986834081	1.1810840728125356	0.33867388244040647	0.45060541295472933	-0.1387489213819024	0.37573573250710424	0.3028734659566282	-0.350941397887604	0.35172184623613456	0.30268772500514296	-0.1952448005936129	0.4819154159658321	0.5158555944595645	-0.08052137952155246	0.43641850204439403	0.5404861677307299	0.12453759981619833	0.37984400448515615	0.3590826273586469	0.2017318121819239	0.3925921405762131	0.20192706391871332	0.2069384133699598	0.3994117161732097	0.15613266722492783	0.21377421763760723	0.3250418992294542	0.3056492760367872	0.2584290524821053	0.19099390475722783	0.5014422839859339	-0.12274302735878481	0.1603016165585773	0.43938932043203033	0.10976033631121321	0.29409768817129706	0.29373960095137835	0.18966972278327043	0.3942724725447771	0.24803205856210186	0.18383032647966346	0.40707243767719525	0.22350031152624908	0.20639412744129215	0.37927254427896945	0.2456223167734578	0.2673886340406612
174	2.9	0.4044705872999438	0.7960744540810024	0.33388405960757817	0.3466007778338495	0.8482570558288196	0.7090666557065429	0.2972156931481826	1.0460267683362583	1.1495661706205076	0.2866938510845372	0.8748659276308812	1.2104201793153113	0.3375539426955203	0.8818212033638013	1.2014155825682835	0.2795310109615525	1.1456564797884796	1.2087318681465884	0.1848394554433032	0.7681601125506629	0.3040505589727717	0.14242408112012722	0.8663727537545698	0.7058620463592311	0.12122074820489061	1.0371917654693827	1.1334408448194089	0.1318841148727687	0.8321301958141116	1.1767336439398333	0.07824180945571711	0.8911475540728171	1.1690000567671786	0.13685453578113987	1.0960934636138155	1.1827569826088982	0.3426001963133691	0.45140458444844955	-0.13848914765055031	0.37227331444604056	0.31438844288169626	-0.3538487689219002	0.35248201945272906	0.30203799072022935	-0.1981530161854015	0.4863975953462174	0.5159476111255534	-0.08398813338797753	0.44158659355364643	0.539539074229225	0.12152907984830502	0.3798354865736125	0.3596405066773149	0.20164100527625684	0.4026817832804373	0.200386424062253	0.20738268956012426	0.40630802778797326	0.16901583055201871	0.229012058726285	0.34662181567083056	0.265234520023891	0.2609152336750574	0.19570246000106284	0.4882821263819598	-0.11713502919663363	0.16897942471234378	0.4290167021964665	0.11202257729334611	0.30420661779355723	0.304409276922046	0.18676257916272643	0.4017504559169618	0.24782302444369356	0.187354880314748	0.41549161261104645	0.21877803330918907	0.20398395265529679	0.38848770034660085	0.23494048363315193	0.2667511429983875
